<?xml version="1.0" encoding="utf-8"?>
<!-- Generator: Adobe Illustrator 14.0.0, SVG Export Plug-In . SVG Version: 6.00 Build 43363)  -->
<!DOCTYPE svg PUBLIC "-//W3C//DTD SVG 1.1//EN" "http://www.w3.org/Graphics/SVG/1.1/DTD/svg11.dtd">
<svg version="1.1" id="feed_icon" xmlns="http://www.w3.org/2000/svg" xmlns:xlink="http://www.w3.org/1999/xlink" x="0px" y="0px"
	 width="128px" height="128px" viewBox="0 0 128 128" enable-background="new 0 0 128 128" xml:space="preserve">
<g>
	<path id="stroke" fill="#210020" d="M128,100.705c0,15.07-12.219,27.295-27.286,27.295H27.286C12.216,128,0,115.775,0,100.705
		V27.294C0,12.219,12.216,0,27.286,0h73.428C115.781,0,128,12.219,128,27.294V100.705z"/>
	<path id="inner_stroke" fill="#431142" d="M125.714,99.393c0,14.537-11.78,26.321-26.312,26.321H28.596
		c-14.529,0-26.311-11.784-26.311-26.321V28.605c0-14.538,11.781-26.319,26.311-26.319H99.4c14.531,0,26.312,11.781,26.312,26.319
		L125.714,99.393L125.714,99.393z"/>
	<path id="gradient" fill="#320031" d="M123.43,98.085c0,13.995-11.35,25.345-25.336,25.345H29.909
		c-13.994,0-25.337-11.35-25.337-25.345V29.917c0-14,11.344-25.346,25.337-25.346h68.185c13.986,0,25.336,11.346,25.336,25.346
		V98.085z"/>
	<g id="lines__x003C_Group_x003E_">
		<circle id="circle" fill="#FFFFFF" cx="34.103" cy="93.625" r="11.428"/>
		<g>
			<path fill="#FFFFFF" d="M22.688,64.812c10.71,0,20.774,4.187,28.34,11.787c7.577,7.612,11.749,17.745,11.749,28.533h16.5
				c0-31.331-25.386-56.821-56.589-56.821V64.812z"/>
		</g>
		<g>
			<path fill="#FFFFFF" d="M22.712,35.562c38.164,0,69.212,31.218,69.212,69.588h16.5c0-47.469-38.449-86.088-85.712-86.088V35.562z
				"/>
		</g>
	</g>
</g>
</svg>
