<?xml version="1.0" encoding="utf-8"?>
<!-- Generator: Adobe Illustrator 14.0.0, SVG Export Plug-In . SVG Version: 6.00 Build 43363)  -->
<!DOCTYPE svg PUBLIC "-//W3C//DTD SVG 1.1//EN" "http://www.w3.org/Graphics/SVG/1.1/DTD/svg11.dtd">
<svg version="1.1" id="feed_icon" xmlns="http://www.w3.org/2000/svg" xmlns:xlink="http://www.w3.org/1999/xlink" x="0px" y="0px"
	 width="128px" height="128px" viewBox="0 0 128 128" enable-background="new 0 0 128 128" xml:space="preserve">
<g>
	<path id="stroke" d="M128,100.705C128,115.776,115.781,128,100.714,128H27.286C12.216,128,0,115.776,0,100.705V27.294
		C0,12.219,12.216,0,27.286,0h73.428C115.781,0,128,12.219,128,27.294V100.705z"/>
	<path id="inner_stroke" fill="#333333" d="M125.714,99.393c0,14.536-11.781,26.321-26.312,26.321H28.596
		c-14.529,0-26.311-11.785-26.311-26.321V28.605c0-14.538,11.781-26.319,26.311-26.319h70.805c14.531,0,26.312,11.781,26.312,26.319
		V99.393z"/>
	<path id="gradient" fill="#111111" d="M123.429,98.085c0,13.995-11.349,25.344-25.335,25.344H29.909
		c-13.994,0-25.337-11.349-25.337-25.344V29.917c0-14,11.344-25.346,25.337-25.346h68.185c13.986,0,25.335,11.346,25.335,25.346
		V98.085z"/>
	<g id="lines__x003C_Group_x003E_">
		<circle id="circle" fill="#FFFFFF" cx="34.103" cy="93.625" r="11.428"/>
		<g>
			<path fill="#FFFFFF" d="M22.688,64.812c10.71,0,20.774,4.187,28.34,11.788c7.577,7.612,11.749,17.745,11.749,28.533h16.5
				c0-31.331-25.386-56.821-56.589-56.821V64.812z"/>
		</g>
		<g>
			<path fill="#FFFFFF" d="M22.712,35.562c38.164,0,69.212,31.218,69.212,69.589h16.5c0-47.47-38.45-86.089-85.712-86.089V35.562z"
				/>
		</g>
	</g>
</g>
</svg>
